<?xml version="1.0" encoding="utf-8"?>
<!-- Generator: Adobe Illustrator 21.0.2, SVG Export Plug-In . SVG Version: 6.00 Build 0)  -->
<svg version="1.1" id="Layer_1" xmlns="http://www.w3.org/2000/svg" xmlns:xlink="http://www.w3.org/1999/xlink" x="0px" y="0px"
	 viewBox="0 0 100 100" style="enable-background:new 0 0 100 100;" xml:space="preserve">
<path d="M93,30H77V17h5c1.1,0,2-0.9,2-2s-0.9-2-2-2H68c-1.1,0-2,0.9-2,2s0.9,2,2,2h5v13H7c-1.1,0-2,0.9-2,2v34c0,1.1,0.9,2,2,2h66
	v15h-5c-1.1,0-2,0.9-2,2s0.9,2,2,2h14c1.1,0,2-0.9,2-2s-0.9-2-2-2h-5V68h16c1.1,0,2-0.9,2-2V32C95,30.9,94.1,30,93,30z M9,64V34h64
	v30H9z M91,64H77V34h14V64z"/>
</svg>
